<?xml version="1.0" standalone="no"?><!DOCTYPE svg PUBLIC "-//W3C//DTD SVG 1.1//EN" "http://www.w3.org/Graphics/SVG/1.1/DTD/svg11.dtd"><svg t="1662452110264" class="icon" viewBox="0 0 1024 1024" version="1.1" xmlns="http://www.w3.org/2000/svg" p-id="5371" xmlns:xlink="http://www.w3.org/1999/xlink" width="200" height="200"><path d="M512 0C229.333333 0 0 229.333333 0 512s229.333333 512 512 512c282.112 0 512-229.333333 512-512S794.112 0 512 0z m338.176 235.989333a435.328 435.328 0 0 1 98.858667 272.128c-14.421333-2.773333-158.805333-32.213333-304.298667-13.866666-3.328-7.253333-6.144-15.018667-9.472-22.784a1301.461333 1301.461333 0 0 0-28.842667-63.317334c161.024-65.536 234.325333-159.914667 243.754667-172.16zM512 75.562667c111.061333 0 212.693333 41.6 289.877333 109.909333-7.765333 11.093333-73.856 99.413333-229.333333 157.696-71.68-131.584-151.04-239.36-163.285333-256A444.714667 444.714667 0 0 1 512 75.52z m-186.026667 41.045333c11.648 15.573333 89.386667 123.861333 162.133334 252.672-204.373333 54.442667-384.853333 53.333333-404.266667 53.333333 28.330667-135.509333 119.978667-248.234667 242.133333-306.005333z m-251.562666 395.946667v-13.312c18.901333 0.554667 230.997333 3.328 449.28-62.208 12.757333 24.448 24.405333 49.408 35.498666 74.410666-5.546667 1.664-11.648 3.328-17.194666 4.992-225.450667 72.746667-345.429333 271.573333-355.413334 288.213334a436.309333 436.309333 0 0 1-112.170666-292.096zM512 949.589333c-101.077333 0-194.346667-34.432-268.202667-92.16 7.765333-16.128 96.597333-187.178667 343.168-273.237333 1.109333-0.554667 1.706667-0.554667 2.773334-1.109333 61.653333 159.36 86.613333 293.205333 93.312 331.52a430.08 430.08 0 0 1-171.050667 34.986666z m243.797333-74.965333c-4.437333-26.666667-27.776-154.368-84.992-311.552 137.173333-21.632 257.109333 13.909333 272.128 18.901333-18.901333 121.6-88.874667 226.56-187.136 292.650667z" fill="#ffffff" p-id="5372"></path></svg>